# xmcd CD database file
#
# Track frame offsets:
#	150
#	37935
#	65281
#	92274
#	121814
#	147442
#	172474
#	195506
#	223340
#	252728
#
# Disc length: 3593 seconds
#
# Revision: 0
# Processed by: cddbd v1.4PL0 Copyright (c) Steve Scherf et al.
# Submitted via: NeoAudio 9.9.9
#
DISCID=950e070a
DTITLE=Mr. Scruff - Mr. Scruff
DYEAR=1900
DGENRE=Jazz
TTITLE0=Sea Mammal
TTITLE1=Tubby Mechanical Friend
TTITLE2=Bass Baby
TTITLE3=Chicken In A Box
TTITLE4=Night Time
TTITLE5=Limbic Funk
TTITLE6=Bobby's Jazz Pony
TTITLE7=Jazz Potato
TTITLE8=Crisps
TTITLE9=Wail
EXTD=
EXTT0=
EXTT1=
EXTT2=
EXTT3=
EXTT4=
EXTT5=
EXTT6=
EXTT7=
EXTT8=
EXTT9=
PLAYORDER=
